# xmcd
# 
# Track frame offsets:
#     150
#     16270
#     29134
#     51498
#     70830
#     86453
#     106085
#     126900
#     141157
#     154693
#     176514
#     199021
#     218504
#     237874
#     258268
# 
# Disc length: 3745
# 
# Revision: 1
# Processed by: cddbd v1.5.2PL0 Copyright (c) Steve Scherf et al.
# Submitted via: fre:ac v1.0.31
# 
DISCID=cb0e9f0f
DTITLE=MASS HYSTERIA - 191
DYEAR=0
DGENRE=Hard Rock
TTITLE0=Animal
TTITLE1=Reprendre Mes Esprits
TTITLE2=Bloodicide
TTITLE3=This Is Crossover
TTITLE4=365
TTITLE5=Keep The Lemmys Comin' (Edit)
TTITLE6=While Love Died
TTITLE7=Fairy Tale
TTITLE8=Never Dead
TTITLE9=Third Secret
TTITLE10=Sunshine Dust (Edit)
TTITLE11=The Pyre
TTITLE12=Smartfriend
TTITLE13=No Hero (Edit)
TTITLE14=The Scarecrow Paradox (Edit)
EXTD=
EXTT0=
EXTT1=
EXTT2=
EXTT3=
EXTT4=
EXTT5=
EXTT6=
EXTT7=
EXTT8=
EXTT9=
EXTT10=
EXTT11=
EXTT12=
EXTT13=
EXTT14=
PLAYORDER=
